HIERARCHY
ROOT Hips
{
	OFFSET 0.000000 0.000000 0.000000
	CHANNELS 6 Xposition Yposition Zposition Zrotation Yrotation Xrotation 
	JOINT LHipJoint
	{
		OFFSET 0.000000 0.000000 0.000000
		CHANNELS 3 Zrotation Yrotation Xrotation
		JOINT LeftUpLeg
		{
			OFFSET 1.363060 -1.794630 0.839290
			CHANNELS 3 Zrotation Yrotation Xrotation
			JOINT LeftLeg
			{
				OFFSET 2.448110 -6.726130 0.000000
				CHANNELS 3 Zrotation Yrotation Xrotation
				JOINT LeftFoot
				{
					OFFSET 2.562200 -7.039590 0.000000
					CHANNELS 3 Zrotation Yrotation Xrotation
					JOINT LeftToeBase
					{
						OFFSET 0.157640 -0.433110 2.322550
						CHANNELS 3 Zrotation Yrotation Xrotation
						End Site
						{
							OFFSET 0.000000 0.000000 0.000000
						}
					}
				}
			}
		}
	}
	JOINT RHipJoint
	{
		OFFSET 0.000000 0.000000 0.000000
		CHANNELS 3 Zrotation Yrotation Xrotation
		JOINT RightUpLeg
		{
			OFFSET -1.305520 -1.794630 0.839290
			CHANNELS 3 Zrotation Yrotation Xrotation
			JOINT RightLeg
			{
				OFFSET -2.542530 -6.985550 0.000000
				CHANNELS 3 Zrotation Yrotation Xrotation
				JOINT RightFoot
				{
					OFFSET -2.568260 -7.056230 0.000000
					CHANNELS 3 Zrotation Yrotation Xrotation
					JOINT RightToeBase
					{
						OFFSET -0.164730 -0.452590 2.363150
						CHANNELS 3 Zrotation Yrotation Xrotation
						End Site
						{
							OFFSET 0.000000 0.000000 0.000000
						}
					}
				}
			}
		}
	}
	JOINT LowerBack
	{
		OFFSET 0.000000 0.000000 0.000000
		CHANNELS 3 Zrotation Yrotation Xrotation
		JOINT Spine
		{
			OFFSET 0.028270 2.035590 -0.193380
			CHANNELS 3 Zrotation Yrotation Xrotation
			JOINT Spine1
			{
				OFFSET 0.056720 2.048850 -0.042750
				CHANNELS 3 Zrotation Yrotation Xrotation
				JOINT Neck
				{
					OFFSET 0.000000 0.000000 0.000000
					CHANNELS 3 Zrotation Yrotation Xrotation
					JOINT Neck1
					{
						OFFSET -0.054170 1.746240 0.172020
						CHANNELS 3 Zrotation Yrotation Xrotation
						JOINT Head
						{
							OFFSET 0.104070 1.761360 -0.123970
							CHANNELS 3 Zrotation Yrotation Xrotation
							End Site
							{
								OFFSET 0.000000 0.000000 0.000000
							}
						}
					}
				}
				JOINT LeftShoulder
				{
					OFFSET 0.000000 0.000000 0.000000
					CHANNELS 3 Zrotation Yrotation Xrotation
					JOINT LeftArm
					{
						OFFSET 3.362410 1.200890 -0.311210
						CHANNELS 3 Zrotation Yrotation Xrotation
						JOINT LeftForeArm
						{
							OFFSET 4.983000 -0.000000 -0.000000
							CHANNELS 3 Zrotation Yrotation Xrotation
							JOINT LeftHand
							{
								OFFSET 3.483560 -0.000000 -0.000000
								CHANNELS 3 Zrotation Yrotation Xrotation
								JOINT LeftFingerBase
								{
									OFFSET 0.000000 0.000000 0.000000
									CHANNELS 3 Zrotation Yrotation Xrotation
									JOINT LeftHandIndex1
									{
										OFFSET 0.715260 -0.000000 -0.000000
										CHANNELS 3 Zrotation Yrotation Xrotation
										End Site
										{
											OFFSET 0.000000 0.000000 0.000000
										}
									}
								}
								JOINT LThumb
								{
									OFFSET 0.000000 0.000000 0.000000
									CHANNELS 3 Zrotation Yrotation Xrotation
									End Site
									{
										OFFSET 0.000000 0.000000 0.000000
									}
								}
							}
						}
					}
				}
				JOINT RightShoulder
				{
					OFFSET 0.000000 0.000000 0.000000
					CHANNELS 3 Zrotation Yrotation Xrotation
					JOINT RightArm
					{
						OFFSET -3.136600 1.374050 -0.404650
						CHANNELS 3 Zrotation Yrotation Xrotation
						JOINT RightForeArm
						{
							OFFSET -5.241900 -0.000000 -0.000000
							CHANNELS 3 Zrotation Yrotation Xrotation
							JOINT RightHand
							{
								OFFSET -3.444170 -0.000000 -0.000000
								CHANNELS 3 Zrotation Yrotation Xrotation
								JOINT RightFingerBase
								{
									OFFSET 0.000000 0.000000 0.000000
									CHANNELS 3 Zrotation Yrotation Xrotation
									JOINT RightHandIndex1
									{
										OFFSET -0.622530 -0.000000 -0.000000
										CHANNELS 3 Zrotation Yrotation Xrotation
										End Site
										{
											OFFSET 0.000000 0.000000 0.000000
										}
									}
								}
								JOINT RThumb
								{
									OFFSET 0.000000 0.000000 0.000000
									CHANNELS 3 Zrotation Yrotation Xrotation
									End Site
									{
										OFFSET 0.000000 0.000000 0.000000
									}
								}
							}
						}
					}
				}
			}
		}
	}
}
MOTION
Frames: 5
Frame Time: 0.008333
4.751764 17.087723 -10.611612 -13.077367 -11.922526 39.267447 9.688314 -0.442648 -4.818972 5.794264 -9.726562 -50.747016 1.609205 14.939217 34.888544 0.117018 2.536540 -7.973744 2.786700 -10.341500 -30.090000 -10.057803 -0.633535 -1.212861 40.832407 13.129328 -50.331722 2.107975 -9.335106 16.614000 -0.024416 6.543689 -0.508221 -1.607500 7.995600 -22.700600 -7.697426 -0.779078 40.046924 -3.172464 -4.971178 3.012091 -6.722024 -2.140108 0.080485 -13.538596 -10.813089 -9.530948 6.291390 -12.116217 16.973351 2.784000 -5.990700 13.595900 2.115981 -0.891021 1.251281 -91.277731 -50.621505 87.953876 81.031384 -55.820900 -54.909146 0.709282 0.170210 -93.550718 24.837978 47.700523 19.035800 -7.125000 0.000000 0.000000 7.247700 -9.366800 -173.978900 -5.033640 2.398389 -0.459598 52.706644 2.012877 14.684634 -147.394688 43.087069 -107.201403 0.122628 -1.058390 12.358205 -14.477310 23.767605 -6.327400 7.125000 0.000000 0.000000 8.956000 -4.730300 8.291000 
4.752656 17.088020 -10.612999 -13.093520 -11.900622 39.219733 9.686697 -0.442065 -4.819392 5.797479 -9.714462 -50.720274 1.616050 14.941343 34.905591 0.125886 2.464280 -7.965064 2.774500 -10.320800 -30.021900 -10.061681 -0.633734 -1.214834 40.837490 13.140341 -50.247910 2.113033 -9.316253 16.572005 -0.028850 6.473337 -0.510424 -1.616700 8.017300 -22.766500 -7.661391 -0.797054 40.030823 -3.155240 -4.971801 3.012031 -6.710528 -2.140953 0.122713 -13.383400 -10.793756 -9.664330 6.187440 -12.102738 17.049643 2.696100 -5.971500 13.655500 2.122243 -0.892494 1.248315 -91.241481 -50.609889 87.872999 81.273690 -55.848228 -55.126692 0.709076 0.173975 -93.808954 25.384329 47.769457 19.500500 -7.125000 0.000000 0.000000 7.026100 -9.136100 -174.133200 -5.032315 2.391966 -0.466819 52.707026 2.077304 14.721293 -147.521561 42.995647 -107.278831 0.091001 -1.049528 12.131633 -13.306072 23.981524 -5.841600 7.125000 0.000000 0.000000 9.706000 -4.676900 9.015200 
4.753944 17.088813 -10.614089 -13.091004 -11.893351 39.175443 9.683761 -0.441177 -4.818307 5.756991 -9.678087 -50.711310 1.623402 14.945605 34.932386 0.135527 2.386678 -7.971562 2.792200 -10.350900 -30.120700 -10.062488 -0.634219 -1.217196 40.855771 13.101432 -50.193509 2.112345 -9.301546 16.544237 -0.027812 6.490657 -0.491244 -1.613700 8.010300 -22.745400 -7.620597 -0.800479 40.013490 -3.136356 -4.953096 3.003593 -6.701399 -2.133400 0.141105 -13.238297 -10.796396 -9.765509 6.098953 -12.123125 17.141070 2.616200 -5.966300 13.724700 2.128128 -0.892912 1.240745 -91.364528 -50.553387 87.927752 81.400599 -55.869004 -55.242223 0.710611 0.174564 -94.002781 25.835021 47.746223 19.865200 -7.125000 0.000000 0.000000 6.826100 -9.017000 -174.286300 -5.028841 2.389866 -0.472594 52.685066 2.119283 14.779780 -147.499354 43.018625 -107.259101 0.071204 -1.048702 12.047943 -12.715707 24.314078 -5.641400 7.125000 0.000000 0.000000 10.095800 -4.420200 9.438300 
4.756817 17.088912 -10.615377 -13.107102 -11.885400 39.147225 9.681895 -0.437759 -4.816083 5.727814 -9.631081 -50.721577 1.631304 14.951262 34.962423 0.137148 2.366180 -7.948727 2.813500 -10.386900 -30.238800 -10.064253 -0.635579 -1.218047 40.897912 13.059570 -50.173823 2.109464 -9.300570 16.549768 -0.025933 6.518344 -0.469918 -1.596000 7.968400 -22.618100 -7.573805 -0.776137 40.014275 -3.104146 -4.892744 2.988298 -6.643899 -2.114246 0.100046 -13.291651 -10.858416 -9.685272 6.174247 -12.211824 17.121364 2.657900 -6.004500 13.716900 2.134106 -0.890331 1.237787 -91.707639 -50.463131 88.251326 81.250156 -55.866228 -55.117498 0.710320 0.171583 -94.804569 26.200421 47.189607 20.014200 -7.125000 0.000000 0.000000 6.540700 -9.425800 -174.582400 -5.028549 2.397819 -0.466522 52.630873 2.109120 14.842951 -147.410322 43.092628 -107.197213 0.067288 -1.047864 12.160223 -12.667036 24.364093 -5.629000 7.125000 0.000000 0.000000 10.129100 -4.377400 9.478700 
4.760086 17.087228 -10.617160 -13.124299 -11.889381 39.146828 9.682045 -0.433247 -4.814186 5.703282 -9.576005 -50.761037 1.639224 14.957554 34.992034 0.137182 2.354102 -7.905665 2.852900 -10.453100 -30.456800 -10.068116 -0.635714 -1.215730 40.907824 13.067003 -50.183851 2.109167 -9.305694 16.562274 -0.026528 6.509306 -0.462040 -1.603600 7.986400 -22.672700 -7.546542 -0.742558 39.990023 -3.068825 -4.822286 2.968427 -6.568243 -2.093055 0.052268 -13.384113 -10.936841 -9.576413 6.244553 -12.316028 17.091386 2.702600 -6.054600 13.701000 2.141283 -0.888521 1.232864 -92.040204 -50.331470 88.553529 81.085691 -55.862796 -54.980078 0.706528 0.172698 -95.351443 26.049352 46.829864 19.789300 -7.125000 0.000000 0.000000 6.525600 -9.821000 -174.647400 -5.028290 2.405365 -0.459076 52.599778 2.122993 14.920305 -147.292781 43.186734 -107.117200 0.072097 -1.045809 12.366134 -12.870553 24.202941 -5.688800 7.125000 0.000000 0.000000 9.992200 -4.515100 9.320300 
